 
<svg width="127px" height="121px" version="1.1" xmlns="http://www.w3.org/2000/svg" xmlns:xlink="http://www.w3.org/1999/xlink" xml:space="preserve" xmlns:serif="http://www.serif.com/" style="fill-rule:evenodd;clip-rule:evenodd;stroke-linejoin:round;stroke-miterlimit:2;">
    <g transform="matrix(1,0,0,1,-388.998,-631.495)">
        <g transform="matrix(1,0,0,1,11.6224,37.5522)">
            <path d="M406.551,628.672L396.602,638.194C395.666,635.02 395.198,631.866 395.198,628.733C395.198,618.235 399.104,609.812 406.917,603.465C414.729,597.117 425.105,593.943 438.045,593.943L442.867,593.943C441.035,603.261 439.937,609.527 439.571,612.742L434.2,661.265C432.572,675.669 428.666,686.106 422.481,692.576C415.482,699.9 407.12,703.562 397.395,703.562C388.199,703.562 381.526,699.046 377.376,690.012L387.141,682.566C389.176,692.983 394.893,698.191 404.292,698.191C410.07,698.191 414.424,695.974 417.354,691.538C420.284,687.103 422.318,679.596 423.457,669.016L430.965,601.328L429.073,601.328C412.146,601.328 403.682,606.923 403.682,618.113C403.682,621.612 404.638,625.132 406.551,628.672Z" style="fill:rgb(255,108,108);fill-rule:nonzero;"/>
        </g>
        <g transform="matrix(1,0,0,1,-15.8802,56.7163)">
            <path d="M444.963,646.073L435.014,655.594C434.078,652.421 433.61,649.267 433.61,646.134C433.61,635.636 437.517,627.213 445.329,620.865C453.142,614.518 463.518,611.344 476.457,611.344L481.279,611.344C479.448,620.662 478.349,626.928 477.983,630.143L475.969,648.392C494.971,623.856 510.596,611.588 522.844,611.588C525.895,611.588 528.784,611.995 531.511,612.809L523.637,621.354C521.359,620.011 518.815,619.34 516.008,619.34C510.759,619.34 505.286,621.822 499.589,626.786C493.893,631.75 489.254,638.077 485.673,645.768C489.498,653.173 493.954,660.335 499.04,667.252L505.632,676.163C510.026,682.145 513.444,685.135 515.886,685.135C519.182,685.135 522.193,682.755 524.919,677.994C526.018,678.93 526.567,679.703 526.567,680.314C526.567,682.714 524.787,685.624 521.226,689.042C517.666,692.46 514.645,694.169 512.163,694.169C507.687,694.169 501.38,688.391 493.242,676.835C485.917,666.377 480.16,656.917 475.969,648.453L474.687,659.989L473.893,666.764C473.202,672.542 471.951,676.713 470.14,679.276C468.329,681.84 464.86,684.342 459.733,686.783L474.138,687.699L466.813,694.779L440.385,693.436L448.198,685.868L454.851,686.6C459.815,683.467 462.866,677.059 464.006,667.374L464.677,661.454L469.377,618.729L467.485,618.729C450.558,618.729 442.094,624.324 442.094,635.514C442.094,639.013 443.05,642.533 444.963,646.073Z" style="fill:rgb(255,108,108);fill-rule:nonzero;"/>
        </g>
    </g>
</svg>
